<svg width="24" height="24" viewBox="0 0 24 24" fill="inherit" xmlns="http://www.w3.org/2000/svg">
<path fill-rule="evenodd" clip-rule="evenodd" d="M11.0989 2.60369C11.5107 2.37181 11.9754 2.25 12.448 2.25C12.9207 2.25 13.3853 2.37181 13.7972 2.60369C14.209 2.83556 14.5541 3.16967 14.7993 3.57377L14.8014 3.57733L23.2776 17.7277C23.5177 18.1435 23.6447 18.615 23.646 19.0952C23.6474 19.5753 23.523 20.0475 23.2852 20.4647C23.0474 20.8818 22.7045 21.2295 22.2907 21.473C21.8768 21.7165 21.4064 21.8474 20.9263 21.8527L20.918 21.8528L3.96978 21.8527C3.48962 21.8475 3.01922 21.7165 2.60537 21.473C2.19152 21.2295 1.84865 20.8818 1.61086 20.4647C1.37308 20.0475 1.24867 19.5753 1.25001 19.0952C1.25136 18.615 1.37841 18.1435 1.61853 17.7277L1.62454 17.7173L10.0946 3.57734L10.0968 3.57377C10.3419 3.16967 10.687 2.83556 11.0989 2.60369ZM12.448 3.75C12.2332 3.75 12.022 3.80537 11.8348 3.91077C11.6481 4.01586 11.4916 4.16717 11.3802 4.35015C11.3799 4.35067 11.3796 4.35119 11.3793 4.35172L2.91486 18.4824C2.80743 18.6703 2.75061 18.8829 2.75 19.0994C2.74939 19.3176 2.80594 19.5322 2.91403 19.7219C3.02211 19.9115 3.17797 20.0695 3.36608 20.1802C3.55314 20.2903 3.76562 20.3497 3.98259 20.3527H20.9134C21.1304 20.3497 21.3429 20.2903 21.53 20.1802C21.7181 20.0695 21.8739 19.9115 21.982 19.7219C22.0901 19.5322 22.1466 19.3176 22.146 19.0994C22.1454 18.8829 22.0886 18.6703 21.9812 18.4824L13.5168 4.35172C13.5165 4.35119 13.5161 4.35067 13.5158 4.35015C13.4045 4.16717 13.2479 4.01586 13.0613 3.91077C12.8741 3.80537 12.6629 3.75 12.448 3.75ZM12.448 8.35274C12.8622 8.35274 13.198 8.68853 13.198 9.10274V13.1027C13.198 13.517 12.8622 13.8527 12.448 13.8527C12.0338 13.8527 11.698 13.517 11.698 13.1027V9.10274C11.698 8.68853 12.0338 8.35274 12.448 8.35274ZM11.698 17.1027C11.698 16.6885 12.0338 16.3527 12.448 16.3527H12.458C12.8722 16.3527 13.208 16.6885 13.208 17.1027C13.208 17.517 12.8722 17.8527 12.458 17.8527H12.448C12.0338 17.8527 11.698 17.517 11.698 17.1027Z" />
</svg>
