<svg width="24" height="24" viewBox="0 0 24 24" fill="inherit" xmlns="http://www.w3.org/2000/svg">
<path fill-rule="evenodd" clip-rule="evenodd" d="M6.82667 4.31572C9.39373 4.5719 11.9128 5.57864 14.0324 7.36321L16.437 4.52618C13.6221 2.19838 9.63359 2.19037 6.82667 4.31572ZM17.4996 5.59235L15.1256 8.39332C16.707 10.0609 17.7796 12.0584 18.3262 14.1726C19.8079 11.425 19.4892 8.01882 17.4996 5.59235ZM17.031 15.2409C16.6254 13.1624 15.6584 11.182 14.1492 9.54532L10.9844 13.2792C12.828 14.5109 14.9243 15.1583 17.031 15.2409ZM10.0089 14.4301C11.8905 15.7229 14.015 16.4689 16.1734 16.6843C13.709 18.5502 10.3339 18.7718 7.64191 17.2228L10.0089 14.4301ZM9.79104 12.3673C7.73822 10.5834 6.45338 8.24113 5.96894 5.75906C8.48621 5.85777 10.9885 6.76276 13.0625 8.50749L9.79104 12.3673ZM8.82111 13.5117L6.41605 16.3492C3.63266 13.9309 2.98827 9.95302 4.67378 6.82747C5.32329 9.33947 6.71534 11.6868 8.82111 13.5117ZM6.03675 17.9646C5.85271 17.8296 5.67227 17.6868 5.49585 17.5363C1.60981 14.2203 1.14771 8.38188 4.46371 4.49584C7.77972 0.609796 13.6181 0.147691 17.5042 3.4637C21.3902 6.7797 21.8523 12.6181 18.5363 16.5042C16.883 18.4416 14.6027 19.528 12.25 19.7194V21.25H15C15.4142 21.25 15.75 21.5858 15.75 22C15.75 22.4142 15.4142 22.75 15 22.75H8.00001C7.5858 22.75 7.25001 22.4142 7.25001 22C7.25001 21.5858 7.5858 21.25 8.00001 21.25H10.75V19.7201C9.12544 19.5893 7.52225 19.0294 6.12169 18.0262C6.09238 18.0079 6.06399 17.9874 6.03675 17.9646Z" />
</svg>
