<svg width="24" height="24" viewBox="0 0 24 24" fill="inherit" xmlns="http://www.w3.org/2000/svg">
<path fill-rule="evenodd" clip-rule="evenodd" d="M14.4697 2.71231C16.4194 0.762563 19.5806 0.762564 21.5303 2.71231C23.4801 4.66206 23.4801 7.82322 21.5303 9.77297L8.53033 22.773C8.38968 22.9136 8.19891 22.9926 8 22.9926H2C1.58579 22.9926 1.25 22.6569 1.25 22.2426V16.2426C1.25 16.0437 1.32902 15.853 1.46967 15.7123L13.4694 3.71259L14.4697 2.71231ZM14 5.3033L2.75 16.5533V21.4926H7.68934L18.9393 10.2426L14 5.3033ZM20 9.18198L15.0607 4.24264L15.5303 3.77297C16.8943 2.40901 19.1057 2.40901 20.4697 3.77297C21.8336 5.13693 21.8336 7.34835 20.4697 8.71231L20 9.18198Z" />
</svg>
