<svg width="24" height="24" viewBox="0 0 24 24" fill="inherit" xmlns="http://www.w3.org/2000/svg">
<path fill-rule="evenodd" clip-rule="evenodd" d="M12 2.75C6.89137 2.75 2.75 6.89137 2.75 12C2.75 17.1086 6.89137 21.25 12 21.25C17.1086 21.25 21.25 17.1086 21.25 12C21.25 6.89137 17.1086 2.75 12 2.75ZM1.25 12C1.25 6.06294 6.06294 1.25 12 1.25C17.9371 1.25 22.75 6.06294 22.75 12C22.75 17.9371 17.9371 22.75 12 22.75C6.06294 22.75 1.25 17.9371 1.25 12ZM12 5.25C12.4142 5.25 12.75 5.58579 12.75 6V11.5365L16.3354 13.3292C16.7059 13.5144 16.8561 13.9649 16.6708 14.3354C16.4856 14.7059 16.0351 14.8561 15.6646 14.6708L11.6646 12.6708C11.4105 12.5438 11.25 12.2841 11.25 12V6C11.25 5.58579 11.5858 5.25 12 5.25Z" />
</svg>
